# Low-resolution sphere centered at (0, 0, 0)
# Vertices, normals, and UV coordinates

mtllib none
g Sphere

v  0.0000 -1.0000  0.0000
v  0.8944 -0.4472  0.0000
v  0.2764 -0.4472  0.8506
v -0.7236 -0.4472  0.5257
v -0.7236 -0.4472 -0.5257
v  0.2764 -0.4472 -0.8506
v  0.7236  0.4472  0.5257
v -0.2764  0.4472  0.8506
v -0.8944  0.4472  0.0000
v -0.2764  0.4472 -0.8506
v  0.7236  0.4472 -0.5257
v  0.0000  1.0000  0.0000

vn  0.0000 -1.0000  0.0000
vn  0.8944 -0.4472  0.0000
vn  0.2764 -0.4472  0.8506
vn -0.7236 -0.4472  0.5257
vn -0.7236 -0.4472 -0.5257
vn  0.2764 -0.4472 -0.8506
vn  0.7236  0.4472  0.5257
vn -0.2764  0.4472  0.8506
vn -0.8944  0.4472  0.0000
vn -0.2764  0.4472 -0.8506
vn  0.7236  0.4472 -0.5257
vn  0.0000  1.0000  0.0000

vt 0.0000 0.0000
vt 0.3333 0.0000
vt 0.6667 0.0000
vt 1.0000 0.0000
vt 0.0000 0.5000
vt 0.3333 0.5000
vt 0.6667 0.5000
vt 1.0000 0.5000
vt 0.0000 1.0000
vt 0.3333 1.0000
vt 0.6667 1.0000
vt 1.0000 1.0000

# Faces with vertex/texture/normal indices
f 1/1/1 2/2/2 3/3/3
f 1/1/1 3/3/3 4/4/4
f 1/1/1 4/4/4 5/5/5
f 1/1/1 5/5/5 6/6/6
f 1/1/1 6/6/6 2/2/2
f 2/2/2 7/7/7 3/3/3
f 3/3/3 7/7/7 8/8/8
f 3/3/3 8/8/8 4/4/4
f 4/4/4 8/8/8 9/9/9
f 4/4/4 9/9/9 5/5/5
f 5/5/5 9/9/9 10/10/10
f 5/5/5 10/10/10 6/6/6
f 6/6/6 10/10/10 11/11/11
f 6/6/6 11/11/11 2/2/2
f 2/2/2 11/11/11 7/7/7
f 7/7/7 12/12/12 8/8/8
f 8/8/8 12/12/12 9/9/9
f 9/9/9 12/12/12 10/10/10
f 10/10/10 12/12/12 11/11/11
f 11/11/11 12/12/12 7/7/7
